# xmcd CD database file
#
# Track frame offsets:
#	150
#	21350
#	36202
#	63162
#	82935
#	100390
#	116710
#	130487
#	144575
#	164040
#	180520
#	202627
#
# Disc length: 2934 seconds
#
# Revision: 1
# Processed by: cddbd v1.5.2PL0 Copyright (c) Steve Scherf et al.
# Submitted via: CDex 1.51
#
DISCID=a20b740c
DTITLE=Matthew Robinson - Bad Habits
DYEAR=1998
DGENRE=Blues
TTITLE0=Got To Leave This Woman
TTITLE1=Mr. Pawnbroker
TTITLE2=You Just Can't Take My Blues
TTITLE3=Sunday Morning Love
TTITLE4=Just Your Fool
TTITLE5=I'm Gonna Stop You From Giving Me The Blues
TTITLE6=Sugar Sweet
TTITLE7=Don't Lose Your Cool
TTITLE8=My Tomorrow
TTITLE9=Give Me My Blues
TTITLE10=West Side Baby
TTITLE11=Bad Habits
EXTD=YEAR: 1998
EXTT0=
EXTT1=
EXTT2=
EXTT3=
EXTT4=
EXTT5=
EXTT6=
EXTT7=
EXTT8=
EXTT9=
EXTT10=
EXTT11=
PLAYORDER=
